<svg width="50" height="50" viewBox="0 0 50 50" fill="none" xmlns="http://www.w3.org/2000/svg">
<g clip-path="url(#clip0_11_292)">
<path d="M39.1845 10.5868C47.2085 18.6108 47.2085 31.6203 39.1845 39.6443C31.1605 47.6683 18.151 47.6683 10.1271 39.6443C2.10313 31.6203 2.10313 18.6108 10.1271 10.5868C18.1511 2.56285 31.1606 2.56285 39.1845 10.5868" stroke="white" stroke-width="3.08201" stroke-linecap="round" stroke-linejoin="round"/>
<path d="M19.0467 13.9072H30.2653C33.3555 13.9072 35.8622 16.4119 35.8622 19.5062V30.7247C35.8622 33.815 33.3575 36.3217 30.2632 36.3217H19.0467C15.9545 36.3217 13.4478 33.817 13.4478 30.7227V19.5062C13.4478 16.4139 15.9545 13.9072 19.0467 13.9072V13.9072Z" stroke="white" stroke-width="3.08201" stroke-linecap="round" stroke-linejoin="round"/>
<path d="M30.8198 18.8496C30.7624 18.8496 30.7173 18.8968 30.7173 18.9521C30.7173 19.0075 30.7624 19.0546 30.8198 19.0546C30.8772 19.0546 30.9223 19.0095 30.9223 18.9521C30.9223 18.8968 30.8751 18.8496 30.8198 18.8496Z" stroke="white" stroke-width="3.08201" stroke-linecap="round" stroke-linejoin="round"/>
<path d="M27.5613 22.2108C29.166 23.8156 29.166 26.4168 27.5613 28.0215C25.9566 29.6262 23.3553 29.6262 21.7506 28.0215C20.1459 26.4168 20.1459 23.8156 21.7506 22.2108C23.3553 20.6061 25.9566 20.6061 27.5613 22.2108Z" stroke="white" stroke-width="3.08201" stroke-linecap="round" stroke-linejoin="round"/>
<circle cx="30.8198" cy="18.9521" r="1.46723" fill="white"/>
</g>
<defs>
<clipPath id="clip0_11_292">
<rect width="49.3122" height="49.3122" fill="white" transform="translate(0 0.459473)"/>
</clipPath>
</defs>
</svg>
