<svg width="50" height="50" viewBox="0 0 50 50" fill="none" xmlns="http://www.w3.org/2000/svg">
<g clip-path="url(#clip0_11_307)">
<path d="M39.3168 10.7219C47.3399 18.7451 47.3399 31.7532 39.3168 39.7762C31.2936 47.7994 18.2855 47.7994 10.2625 39.7762C2.23933 31.7531 2.23933 18.745 10.2625 10.7219C18.2856 2.69881 31.2937 2.69881 39.3168 10.7219" stroke="white" stroke-width="3.08168" stroke-linecap="round" stroke-linejoin="round"/>
<path d="M22.0856 20.4087H24.5818V32.8916H24.5777C22.0076 32.8916 19.1827 31.3302 17.1796 28.4539C14.1719 24.2382 13.3501 21.0517 13.3501 20.4107" stroke="white" stroke-width="3.08168" stroke-linecap="round" stroke-linejoin="round"/>
<path d="M34.3595 32.8914C34.3595 32.8914 33.4514 30.9767 31.6085 28.8709C30.38 27.4307 28.6501 26.6521 27.0764 26.6521C28.6501 26.6521 30.38 25.8714 31.6085 24.4333C33.4514 22.3254 34.3595 20.4106 34.3595 20.4106" stroke="white" stroke-width="3.08168" stroke-linecap="round" stroke-linejoin="round"/>
<path d="M27.0763 26.6548H24.5781" stroke="white" stroke-width="3.08168" stroke-linecap="round" stroke-linejoin="round"/>
</g>
<defs>
<clipPath id="clip0_11_307">
<rect width="49.3069" height="49.3069" fill="white" transform="translate(0.13623 0.595703)"/>
</clipPath>
</defs>
</svg>
